<?xml version="1.0" ?><!DOCTYPE svg  PUBLIC '-//W3C//DTD SVG 1.1//EN'  'http://www.w3.org/Graphics/SVG/1.1/DTD/svg11.dtd'><svg enable-background="new 0 0 500 500" height="500px" id="Layer_1" version="1.1" viewBox="0 0 500 500" width="500px" xml:space="preserve" xmlns="http://www.w3.org/2000/svg" xmlns:xlink="http://www.w3.org/1999/xlink"><path clip-rule="evenodd" d="M250,110.504c-9.086-35.339-55.241-56.332-90.855-56.332  c-70.233,0-127.195,54.513-127.195,127.198c0,136.28,129.557,172.624,199.88,254.39c0.628,0.906,1.366,1.644,2.182,2.45  c8.898,8.818,23.256,8.818,32.154,0c0.825-0.807,1.368-1.544,2.006-2.45c70.412-81.945,199.879-117.561,199.879-254.39  c0-72.685-56.962-127.198-127.198-127.198C305.239,54.172,259.086,75.165,250,110.504z M346.765,135.941  c-8.544-1.543-14.993-8.996-14.993-17.895c0-9.991,8.181-18.447,18.167-18.447c14.448,0,31.978,10.267,46.699,24.81  c14.994,14.896,25.986,34.796,25.986,47.875c0,9.99-8.18,18.171-18.172,18.171c-8.906,0-16.35-6.45-17.905-14.996  C382.004,157.201,366.388,140.484,346.765,135.941z" fill="#010101" fill-rule="evenodd"/></svg>